# xmcd
# Track frame offsets:
# 150
# 16642
# 29778
# 43639
# 54841
# 68992
# 84248
# 101144
# 116363
# 130318
# 148011
# 155634
# 174538
# 191181
#
# Disc length: 2639 seconds
# Revision: 0
# Processed by: cddbd v1.5.2PL0 Copyright (c) Steve Scherf et al.
# Submitted via: VisiTrax 2.11.1.266 - For more info visit www.synapsa.com
#
DISCID=bf0a4d0e
DTITLE=Marty Stuart - Ghost Train - The Studio B Sessions
DYEAR=2010
DGENRE=Country
TTITLE0=Branded
TTITLE1=Country Boy Rock and Roll (with Kenny Vaughan)
TTITLE2=Drifting Apart
TTITLE3=Bridge Washed Out
TTITLE4=A World Without You
TTITLE5=Hummingbyrd (Instrumental)
TTITLE6=Hangman
TTITLE7=Ghost train Four-Oh-Ten
TTITLE8=Hard Working Man
TTITLE9=I Run To you (with Connie Smith)
TTITLE10=Crazy Arms (Instrumental) (Featuring Ralph Mooney)
TTITLE11=Porter Wagoner's Grave
TTITLE12=Little Heartbreaker (The Likes Of You)
TTITLE13=Mississippi Road Blues (Instrumental)
EXTD=
EXTT0=
EXTT1=
EXTT2=
EXTT3=
EXTT4=
EXTT5=
EXTT6=
EXTT7=
EXTT8=
EXTT9=
EXTT10=
EXTT11=
EXTT12=
EXTT13=
PLAYORDER=
